<?xml version="1.0" standalone="no"?>
<!DOCTYPE svg PUBLIC "-//W3C//DTD SVG 20010904//EN"
 "http://www.w3.org/TR/2001/REC-SVG-20010904/DTD/svg10.dtd">
<svg version="1.0" xmlns="http://www.w3.org/2000/svg"
 width="1400.000000pt" height="500.000000pt" viewBox="0 0 1400.000000 500.000000"
 preserveAspectRatio="xMidYMid meet">
<metadata>
Created by potrace 1.15, written by Peter Selinger 2001-2017
</metadata>
<g transform="translate(0.000000,500.000000) scale(0.100000,-0.100000)"
fill="#000000" stroke="none">
<path d="M12200 3708 c-116 -34 -204 -65 -265 -96 -322 -159 -544 -447 -621
-802 -25 -114 -25 -391 -1 -499 85 -370 311 -657 640 -811 76 -36 241 -90 273
-90 11 0 14 17 14 69 l0 69 -46 11 c-286 72 -553 297 -674 566 -17 38 -43 113
-57 165 -24 86 -27 112 -27 270 0 158 3 184 27 270 14 52 40 127 57 165 121
271 386 493 673 566 l47 11 0 74 c0 41 -1 74 -2 73 -2 -1 -19 -6 -38 -11z"/>
<path d="M12690 3641 l0 -69 53 -12 c72 -17 180 -61 255 -104 349 -198 548
-594 504 -1004 -40 -366 -235 -653 -553 -811 -55 -28 -126 -58 -157 -66 -105
-29 -102 -26 -102 -100 0 -77 -2 -77 122 -41 185 54 358 156 494 291 170 169
278 377 325 625 7 36 12 130 12 210 0 155 -9 226 -50 360 -110 367 -405 657
-778 765 -128 37 -125 38 -125 -44z"/>
<path d="M1170 3674 c-566 -167 -896 -721 -784 -1315 76 -404 365 -727 762
-853 132 -42 122 -53 122 138 l0 164 -86 41 c-159 76 -263 179 -345 343 -66
131 -84 218 -83 398 1 180 17 258 84 394 76 156 203 280 358 348 l72 32 0 168
c0 92 -3 168 -7 167 -5 0 -46 -11 -93 -25z"/>
<path d="M1760 3533 l0 -168 103 -49 c89 -42 113 -59 189 -136 74 -75 93 -102
137 -191 77 -159 86 -203 85 -409 0 -164 -2 -180 -28 -260 -83 -251 -232 -413
-458 -499 l-28 -11 0 -169 0 -170 88 24 c232 62 450 208 592 397 343 455 293
1129 -111 1514 -147 139 -333 238 -541 288 l-28 6 0 -167z"/>
<path d="M10177 3603 c-7 -7 -10 -2077 -3 -2084 2 -2 34 -2 70 -1 l66 4 0
1044 0 1044 -63 0 c-35 0 -67 -3 -70 -7z"/>
<path d="M10545 3598 c-3 -7 -4 -478 -3 -1047 l3 -1033 68 -2 67 -1 0 1048 0
1047 -65 0 c-43 0 -67 -4 -70 -12z"/>
<path d="M3966 3459 c-32 -5 -85 -16 -117 -25 l-59 -17 0 -138 c0 -77 3 -139
6 -139 3 0 31 8 62 17 79 23 256 23 342 0 183 -49 337 -173 417 -337 56 -114
74 -183 80 -321 17 -358 -171 -643 -482 -730 -99 -28 -258 -30 -351 -5 -34 9
-65 16 -68 16 -4 0 -5 -64 -4 -142 l3 -142 50 -13 c97 -25 218 -34 324 -23
423 44 731 313 842 735 27 103 37 319 19 436 -35 242 -164 481 -337 624 -193
159 -481 240 -727 204z"/>
<path d="M8608 3460 c-31 -5 -72 -13 -90 -18 l-33 -8 -3 -143 c-2 -133 -1
-142 15 -137 118 35 260 34 357 -4 106 -41 188 -136 227 -261 18 -57 19 -102
19 -718 0 -362 2 -660 4 -662 2 -2 77 -3 165 -1 l161 3 0 679 c0 721 -2 759
-49 878 -54 135 -169 265 -286 322 -123 61 -345 92 -487 70z"/>
<path d="M6047 3429 c-148 -42 -266 -110 -381 -220 -296 -281 -386 -774 -216
-1183 83 -199 234 -364 425 -463 74 -38 199 -83 231 -83 11 0 14 28 14 150 l0
150 -35 15 c-132 54 -266 208 -324 370 -26 74 -51 182 -43 189 3 3 358 6 789
6 l783 0 0 28 c0 78 -24 260 -46 354 -31 128 -118 313 -191 403 -122 150 -289
250 -500 298 l-23 5 0 -153 0 -154 69 -36 c152 -80 281 -272 293 -435 l3 -35
-575 -3 c-316 -1 -580 0 -587 2 -17 7 10 105 57 201 63 130 159 230 272 283
l58 27 0 153 c0 83 -1 152 -2 151 -2 0 -34 -9 -71 -20z"/>
<path d="M7740 2467 c0 -524 2 -956 4 -958 2 -2 77 -3 165 -1 l161 3 -2 952
-3 952 -162 3 -163 3 0 -954z"/>
<path d="M12187 3365 c-236 -87 -416 -293 -488 -560 -19 -67 -22 -107 -22
-245 0 -138 3 -178 22 -245 67 -247 221 -437 432 -534 114 -52 109 -54 109 31
l0 73 -73 34 c-103 48 -217 165 -274 281 -65 130 -78 191 -78 360 0 168 13
228 76 359 55 114 171 233 276 282 l72 34 0 73 c1 39 -2 72 -6 71 -5 0 -25 -7
-46 -14z"/>
<path d="M12690 3310 l0 -69 78 -38 c153 -75 278 -235 334 -429 32 -113 32
-315 0 -428 -55 -193 -172 -344 -329 -425 l-83 -42 0 -70 c0 -48 4 -69 13 -69
27 0 170 70 230 114 179 127 301 350 329 601 36 321 -95 645 -329 811 -60 44
-203 114 -230 114 -9 0 -13 -21 -13 -70z"/>
<path d="M3050 1680 l0 -930 165 0 165 0 0 930 0 930 -165 0 -165 0 0 -930z"/>
<path d="M6790 1925 c-58 -58 -167 -125 -242 -149 -16 -5 -18 -21 -18 -156 0
-139 1 -151 18 -146 9 3 46 12 82 21 166 41 389 183 496 316 49 61 114 159
114 173 0 3 -87 6 -193 6 l-193 0 -64 -65z"/>
</g>
</svg>
